# xmcd CD database file
#
# Track frame offsets:
#	150
#	14379
#	28536
#	43384
#	57978
#	71867
#	85441
#	99476
#	112673
#	124802
#	139747
#	151136
#	166919
#	181452
#	195159
#	205867
#
# Disc length: 2928 seconds
#
# Revision: 1
# Processed by: cddbd v1.5.2PL0 Copyright (c) Steve Scherf et al.
# Submitted via: CDex 1.51
#
DISCID=d60b6e10
DTITLE=21 Bing Crosby - Coleção Folha Grandes Vozes
DYEAR=2012
DGENRE=Jazz
TTITLE0=Love in bloom
TTITLE1=Out of nowhere
TTITLE2=New San Antonio Rose
TTITLE3=Pennies from heaven
TTITLE4=I found a million dollar babay- in five and ten cent store
TTITLE5=Too-ra-loo-ra-loo-ral - That's an irish lullaby
TTITLE6=Don't fence me in
TTITLE7=Play a simple melody
TTITLE8=Dear hearts and gentile people
TTITLE9=Sweet leilani
TTITLE10=Swinging on a star
TTITLE11=Chattanoogie shoe shine boy
TTITLE12=June in January
TTITLE13=Pistol packin' mama
TTITLE14=Ol' man river
TTITLE15=White Christmas
EXTD=YEAR: 2012
EXTT0=
EXTT1=
EXTT2=
EXTT3=
EXTT4=
EXTT5=
EXTT6=
EXTT7=
EXTT8=
EXTT9=
EXTT10=
EXTT11=
EXTT12=
EXTT13=
EXTT14=
EXTT15=
PLAYORDER=
